<svg version="1.1" id="Layer_1" xmlns="http://www.w3.org/2000/svg" xmlns:xlink="http://www.w3.org/1999/xlink" x="0px" y="0px"
	 width="100%" viewBox="0 0 3000 3000" enable-background="new 0 0 3000 3000" xml:space="preserve">
<path fill="#FFFFFF" opacity="0.0" stroke="none" 
	d="
M1892.000000,3002.000000 
	C1261.333496,3002.000000 631.666870,3002.000000 2.000254,3002.000000 
	C2.000169,2002.000244 2.000169,1002.000610 2.000084,2.000656 
	C1001.999512,2.000437 2001.999023,2.000437 3001.999023,2.000219 
	C3001.999268,1001.999329 3001.999268,2001.998657 3001.999512,3001.999023 
	C2632.333252,3002.000000 2262.666748,3002.000000 1892.000000,3002.000000 
M2468.467285,1658.298340 
	C2450.057373,1662.738403 2431.662842,1667.243164 2413.234863,1671.607422 
	C2325.828125,1692.307373 2238.417969,1712.991943 2150.998535,1733.637817 
	C2061.636230,1754.742920 1972.255493,1775.769287 1882.894409,1796.879150 
	C1759.232422,1826.091797 1635.587158,1855.375488 1511.899414,1884.478638 
	C1507.880493,1885.424316 1503.281738,1885.576904 1499.281128,1884.663330 
	C1467.591553,1877.427124 1435.987427,1869.817627 1404.346069,1862.369507 
	C1332.855835,1845.541382 1261.350952,1828.775513 1189.867432,1811.919312 
	C1108.665161,1792.771240 1027.487671,1773.518311 946.284485,1754.373779 
	C863.462830,1734.847778 780.618774,1715.417236 697.793396,1695.906982 
	C656.652954,1686.216064 615.537292,1676.420532 574.400574,1666.713989 
	C561.523804,1663.675659 548.614746,1660.773926 535.059570,1657.657593 
	C535.059570,1796.480103 535.059570,1934.321289 535.059570,2072.456543 
	C537.259583,2073.135010 539.088074,2073.809570 540.969849,2074.262695 
	C586.533997,2085.231934 632.101929,2096.185547 677.673096,2107.125000 
	C725.510864,2118.608398 773.349792,2130.086670 821.193298,2141.545654 
	C918.551697,2164.863770 1015.913391,2188.167480 1113.274048,2211.476074 
	C1157.879883,2222.155029 1202.486694,2232.829102 1247.092529,2243.507568 
	C1277.783813,2250.854492 1308.473633,2258.207031 1339.165161,2265.552979 
	C1386.363159,2276.850098 1433.562134,2288.142822 1480.760132,2299.440186 
	C1489.005859,2301.413574 1497.259155,2304.990967 1505.489624,2304.936035 
	C1513.814697,2304.880859 1522.104858,2301.190918 1530.428955,2299.169434 
	C1641.335815,2272.237793 1752.258423,2245.371338 1863.150635,2218.379150 
	C1926.170776,2203.039062 1989.139648,2187.488770 2052.151123,2172.113525 
	C2053.602051,2171.759766 2055.287842,2172.368896 2057.154297,2172.558105 
	C2057.154297,2223.609131 2057.154297,2274.221436 2057.154297,2325.610840 
	C2053.918945,2326.592285 2050.569580,2327.803223 2047.127441,2328.623779 
	C1992.447876,2341.657715 1937.776367,2354.726318 1883.063599,2367.619873 
	C1759.746704,2396.679688 1636.401733,2425.619141 1513.100708,2454.745850 
	C1507.721069,2456.016846 1502.801758,2456.031738 1497.430908,2454.757324 
	C1414.636353,2435.114014 1331.801025,2415.642334 1248.979248,2396.114258 
	C1167.234253,2376.839844 1085.495117,2357.541016 1003.750977,2338.262939 
	C921.682129,2318.908203 839.608826,2299.572266 757.540222,2280.216309 
	C687.247803,2263.637939 616.961243,2247.034424 546.663696,2230.477539 
	C542.926025,2229.597412 539.109497,2229.052490 535.094116,2228.307373 
	C535.094116,2367.098877 535.094116,2504.997559 535.094116,2643.221924 
	C549.326416,2646.675781 563.140320,2650.064453 576.971985,2653.379150 
	C652.324524,2671.435303 727.680847,2689.475830 803.036926,2707.517090 
	C850.234009,2718.816895 897.433960,2730.104492 944.630981,2741.404297 
	C992.151794,2752.781250 1039.669800,2764.170166 1087.190674,2775.547119 
	C1134.387451,2786.846680 1181.600220,2798.079834 1228.781006,2809.446289 
	C1319.995361,2831.420898 1411.189697,2853.477783 1502.412476,2875.417480 
	C1504.182617,2875.843018 1506.265503,2875.522705 1508.090454,2875.084229 
	C1540.726562,2867.244629 1573.337402,2859.299072 1605.969360,2851.442383 
	C1723.052124,2823.252686 1840.133423,2795.057617 1957.229248,2766.922119 
	C2106.038086,2731.166504 2254.862061,2695.474365 2403.675049,2659.737061 
	C2426.267822,2654.311035 2448.837402,2648.787842 2472.174072,2643.126221 
	C2472.174072,2638.832520 2472.174072,2634.893799 2472.174072,2630.954834 
	C2472.174072,2311.288818 2472.175293,1991.622681 2472.155518,1671.956543 
	C2472.155273,1667.970093 2471.879639,1663.983643 2471.913086,1658.880737 
	C2471.281494,1658.729736 2470.650146,1658.578735 2468.467285,1658.298340 
M1943.507080,1013.416321 
	C1793.915649,718.997070 1644.324097,424.577820 1494.830078,130.350555 
	C1338.555542,130.350555 1182.861450,130.350555 1026.977295,130.350555 
	C1029.213867,134.351974 1031.209595,137.690201 1032.989502,141.139801 
	C1111.157837,292.634705 1189.252686,444.167572 1267.606934,595.566223 
	C1271.864136,603.791992 1272.116699,610.277771 1267.808350,618.744080 
	C1104.576050,939.511963 941.598816,1260.409668 778.602600,1581.297607 
	C776.985291,1584.481567 775.568237,1587.767212 773.694153,1591.784668 
	C911.565674,1625.618408 1048.764648,1659.287109 1186.409058,1693.065063 
	C1292.728760,1485.502197 1398.630371,1278.755493 1505.277222,1070.553955 
	C1611.965088,1278.825439 1717.985352,1485.793457 1824.155151,1693.053467 
	C1962.251343,1659.168701 2099.218994,1625.561035 2237.218750,1591.699951 
	C2139.203369,1398.777588 2041.657104,1206.778320 1943.507080,1013.416321 
z"/>
<path fill="#274154" opacity="1.000000" stroke="none" 
	d="
M2471.732666,1659.997192 
	C2471.879639,1663.983643 2472.155273,1667.970093 2472.155518,1671.956543 
	C2472.175293,1991.622681 2472.174072,2311.288818 2472.174072,2630.954834 
	C2472.174072,2634.893799 2472.174072,2638.832520 2472.174072,2643.126221 
	C2448.837402,2648.787842 2426.267822,2654.311035 2403.675049,2659.737061 
	C2254.862061,2695.474365 2106.038086,2731.166504 1957.229248,2766.922119 
	C1840.133423,2795.057617 1723.052124,2823.252686 1605.969360,2851.442383 
	C1573.337402,2859.299072 1540.726562,2867.244629 1508.090454,2875.084229 
	C1506.265503,2875.522705 1504.182617,2875.843018 1502.412476,2875.417480 
	C1411.189697,2853.477783 1319.995361,2831.420898 1228.781006,2809.446289 
	C1181.600220,2798.079834 1134.387451,2786.846680 1087.190674,2775.547119 
	C1039.669800,2764.170166 992.151794,2752.781250 944.630981,2741.404297 
	C897.433960,2730.104492 850.234009,2718.816895 803.036926,2707.517090 
	C727.680847,2689.475830 652.324524,2671.435303 576.971985,2653.379150 
	C563.140320,2650.064453 549.326416,2646.675781 535.094116,2643.221924 
	C535.094116,2504.997559 535.094116,2367.098877 535.094116,2228.307373 
	C539.109497,2229.052490 542.926025,2229.597412 546.663696,2230.477539 
	C616.961243,2247.034424 687.247803,2263.637939 757.540222,2280.216309 
	C839.608826,2299.572266 921.682129,2318.908203 1003.750977,2338.262939 
	C1085.495117,2357.541016 1167.234253,2376.839844 1248.979248,2396.114258 
	C1331.801025,2415.642334 1414.636353,2435.114014 1497.430908,2454.757324 
	C1502.801758,2456.031738 1507.721069,2456.016846 1513.100708,2454.745850 
	C1636.401733,2425.619141 1759.746704,2396.679688 1883.063599,2367.619873 
	C1937.776367,2354.726318 1992.447876,2341.657715 2047.127441,2328.623779 
	C2050.569580,2327.803223 2053.918945,2326.592285 2057.154297,2325.610840 
	C2057.154297,2274.221436 2057.154297,2223.609131 2057.154297,2172.558105 
	C2055.287842,2172.368896 2053.602051,2171.759766 2052.151123,2172.113525 
	C1989.139648,2187.488770 1926.170776,2203.039062 1863.150635,2218.379150 
	C1752.258423,2245.371338 1641.335815,2272.237793 1530.428955,2299.169434 
	C1522.104858,2301.190918 1513.814697,2304.880859 1505.489624,2304.936035 
	C1497.259155,2304.990967 1489.005859,2301.413574 1480.760132,2299.440186 
	C1433.562134,2288.142822 1386.363159,2276.850098 1339.165161,2265.552979 
	C1308.473633,2258.207031 1277.783813,2250.854492 1247.092529,2243.507568 
	C1202.486694,2232.829102 1157.879883,2222.155029 1113.274048,2211.476074 
	C1015.913391,2188.167480 918.551697,2164.863770 821.193298,2141.545654 
	C773.349792,2130.086670 725.510864,2118.608398 677.673096,2107.125000 
	C632.101929,2096.185547 586.533997,2085.231934 540.969849,2074.262695 
	C539.088074,2073.809570 537.259583,2073.135010 535.059570,2072.456543 
	C535.059570,1934.321289 535.059570,1796.480103 535.059570,1657.657593 
	C548.614746,1660.773926 561.523804,1663.675659 574.400574,1666.713989 
	C615.537292,1676.420532 656.652954,1686.216064 697.793396,1695.906982 
	C780.618774,1715.417236 863.462830,1734.847778 946.284485,1754.373779 
	C1027.487671,1773.518311 1108.665161,1792.771240 1189.867432,1811.919312 
	C1261.350952,1828.775513 1332.855835,1845.541382 1404.346069,1862.369507 
	C1435.987427,1869.817627 1467.591553,1877.427124 1499.281128,1884.663330 
	C1503.281738,1885.576904 1507.880493,1885.424316 1511.899414,1884.478638 
	C1635.587158,1855.375488 1759.232422,1826.091797 1882.894409,1796.879150 
	C1972.255493,1775.769287 2061.636230,1754.742920 2150.998535,1733.637817 
	C2238.417969,1712.991943 2325.828125,1692.307373 2413.234863,1671.607422 
	C2431.662842,1667.243164 2450.057373,1662.738403 2469.429443,1658.720093 
	C2470.747070,1659.570435 2471.194092,1659.855591 2471.732666,1659.997192 
z"/>
<path fill="#274154" opacity="1.000000" stroke="none" 
	d="
M1943.808960,1014.097656 
	C2041.657104,1206.778320 2139.203369,1398.777588 2237.218750,1591.699951 
	C2099.218994,1625.561035 1962.251343,1659.168701 1824.155151,1693.053467 
	C1717.985352,1485.793457 1611.965088,1278.825439 1505.277222,1070.553955 
	C1398.630371,1278.755493 1292.728760,1485.502197 1186.409058,1693.065063 
	C1048.764648,1659.287109 911.565674,1625.618408 773.694153,1591.784668 
	C775.568237,1587.767212 776.985291,1584.481567 778.602600,1581.297607 
	C941.598816,1260.409668 1104.576050,939.511963 1267.808350,618.744080 
	C1272.116699,610.277771 1271.864136,603.791992 1267.606934,595.566223 
	C1189.252686,444.167572 1111.157837,292.634705 1032.989502,141.139801 
	C1031.209595,137.690201 1029.213867,134.351974 1026.977295,130.350555 
	C1182.861450,130.350555 1338.555542,130.350555 1494.830078,130.350555 
	C1644.324097,424.577820 1793.915649,718.997070 1943.808960,1014.097656 
z"/>
<path fill="#353940" opacity="1.000000" stroke="none" 
	d="
M2471.822754,1659.438965 
	C2471.194092,1659.855591 2470.747070,1659.570435 2470.205078,1658.784668 
	C2470.650146,1658.578735 2471.281494,1658.729736 2471.822754,1659.438965 
z"/>
</svg>